<svg width="48" height="48" viewBox="0 0 48 48" fill="none" xmlns="http://www.w3.org/2000/svg">
<rect width="48" height="48" rx="11" fill="url(#paint0_linear_1_5)"/>
<path d="M14.2259 26.3994C13.9947 26.4001 13.768 26.3365 13.5722 26.2158C13.3764 26.0951 13.2195 25.9223 13.1197 25.7175C13.0199 25.5128 12.9813 25.2844 13.0084 25.0589C13.0356 24.8335 13.1273 24.6202 13.273 24.4439L25.3684 12.2071C25.4591 12.1042 25.5827 12.0347 25.719 12.01C25.8552 11.9853 25.996 12.0067 26.1182 12.0709C26.2404 12.1351 26.3367 12.2381 26.3914 12.3632C26.4461 12.4882 26.4558 12.6277 26.4191 12.7589L24.0733 19.981C24.0041 20.1628 23.9809 20.3584 24.0056 20.5509C24.0303 20.7434 24.1022 20.9272 24.2151 21.0865C24.3281 21.2457 24.4787 21.3757 24.654 21.4653C24.8293 21.5548 25.0241 21.6013 25.2218 21.6006H33.7741C34.0053 21.5999 34.232 21.6635 34.4278 21.7842C34.6236 21.9049 34.7805 22.0777 34.8803 22.2825C34.9801 22.4872 35.0187 22.7156 34.9916 22.9411C34.9644 23.1665 34.8727 23.3798 34.727 23.5561L22.6316 35.7929C22.5409 35.8958 22.4173 35.9653 22.281 35.99C22.1448 36.0147 22.004 35.9933 21.8818 35.9291C21.7596 35.8649 21.6633 35.7619 21.6086 35.6368C21.5539 35.5118 21.5442 35.3723 21.5809 35.2411L23.9267 28.019C23.9959 27.8372 24.0191 27.6416 23.9944 27.4491C23.9697 27.2566 23.8978 27.0728 23.7849 26.9135C23.6719 26.7543 23.5213 26.6243 23.346 26.5347C23.1707 26.4452 22.9759 26.3987 22.7782 26.3994H14.2259Z" fill="white" stroke="white" stroke-width="2" stroke-linecap="round" stroke-linejoin="round"/>
<defs>
<linearGradient id="paint0_linear_1_5" x1="7.5" y1="7.5" x2="37" y2="41.5" gradientUnits="userSpaceOnUse">
<stop stop-color="#0D9488"/>
<stop offset="1" stop-color="#14B8A6"/>
</linearGradient>
</defs>
</svg>
